<?xml version="1.0" encoding="utf-8"?>
<!-- Generator: Adobe Illustrator 16.0.4, SVG Export Plug-In . SVG Version: 6.00 Build 0)  -->
<!DOCTYPE svg PUBLIC "-//W3C//DTD SVG 1.1//EN" "http://www.w3.org/Graphics/SVG/1.1/DTD/svg11.dtd">
<svg version="1.1" id="Calque_1" xmlns="http://www.w3.org/2000/svg" xmlns:xlink="http://www.w3.org/1999/xlink" x="0px" y="0px"
	 width="452px" height="57px" viewBox="0 0 452 57" enable-background="new 0 0 452 57" xml:space="preserve">
<g opacity="0.6">
	<g>
		<g>
			<path fill="#FFFFFF" d="M154.001,2.244h7.909v2.689c0,0-0.567,0-0.972,0c-0.462,0-0.603,0.175-0.603,0.635
				c0,0.454,0,5.766,0,6.058c0,0.29,0.242,0.561,0.636,0.561c0.395,0,1.98,0,2.282,0c0.302,0,0.669-0.212,0.669-0.639
				c0-0.423,0-2.168,0-2.168h3.158v5.497H154v-2.679c0,0,0.587,0,0.922,0c0.43,0,0.659-0.148,0.659-0.584c0-0.302,0-5.732,0-6.046
				c0-0.389-0.079-0.635-0.602-0.635c-0.474,0-0.98,0-0.98,0L154.001,2.244L154.001,2.244z"/>
			<path fill="#FFFFFF" d="M168.459,2.244h13.011v4.058h-3.256c0,0,0-0.26,0-0.674c0-0.413-0.205-0.694-0.839-0.694
				c-0.632,0-2.835,0-2.835,0v2.279h3.063v2.449h-3.063v2.525c0,0,2.461,0,2.968,0c0.392,0,0.706-0.239,0.706-0.691
				c0-0.32,0-0.688,0-0.688h3.256v4.069h-13.011v-2.678c0,0,0.387,0,0.703,0c0.376,0,0.624-0.156,0.624-0.534
				c0-0.318,0-5.688,0-6.068c0-0.407-0.063-0.662-0.585-0.662c-0.521,0-0.742,0-0.742,0V2.244L168.459,2.244z"/>
			<path fill="#FFFFFF" d="M187.946,2.244h13.316v4.058h-3.256c0,0,0-0.274,0-0.688c0-0.367-0.227-0.681-0.725-0.681
				c-0.633,0-2.95,0-2.95,0v2.279h2.731v2.449h-2.731c0,0,0,1.178,0,1.826c0,0.503,0.217,0.71,0.868,0.71c0.506,0,1.034,0,1.034,0
				v2.679h-8.288v-2.679c0,0,0.779,0,1.098,0c0.314,0,0.535-0.214,0.535-0.534c0-0.318,0-5.688,0-6.068
				c0-0.38-0.061-0.662-0.585-0.662c-0.521,0-1.048,0-1.048,0L187.946,2.244L187.946,2.244z"/>
			<path fill="#FFFFFF" d="M208.806,5.568c0-0.477,0.143-0.635,0.601-0.635c0.406,0,0.98,0,0.98,0V2.244h-7.865v2.689
				c0,0,0.528,0,1.002,0c0.524,0,0.602,0.242,0.602,0.635c0,0.122,0,5.793,0,6.06c0,0.468-0.285,0.569-0.619,0.569
				c-0.404,0-0.984,0-0.984,0v2.679h7.865v-2.679c0,0-0.487,0-0.961,0c-0.383,0-0.62-0.152-0.62-0.585
				C208.806,11.49,208.806,5.831,208.806,5.568z"/>
			<path fill="#FFFFFF" d="M222.262,2.244h2.786v4.442h-2.799c0,0-0.808-1.945-3.067-1.945c-1.699,0-3.016,1.231-3.016,3.514
				c0,3.858,2.118,4.184,3.042,4.184c1.881,0,2.313-1.341,2.313-1.882h-1.749v-2.33h6.029c0,0-0.018,0.948-0.027,1.625
				c-0.005,0.325-0.314,5.247-7.071,5.247c-4.867,0-7.424-2.797-7.424-6.79c0-2.651,2.062-6.254,7.013-6.254
				c2.773,0,3.97,1.138,3.97,1.138V2.244L222.262,2.244z"/>
			<path fill="#FFFFFF" d="M240.539,12.197c-0.539,0-0.702-0.483-1.025-1.264c-0.268-0.64-3.322-8.689-3.322-8.689h-4.844
				c0,0-3.283,8.947-3.439,9.33c-0.184,0.446-0.461,0.624-0.947,0.624c-0.457,0-0.7,0-0.7,0v2.679h5.922v-2.548c0,0-0.441,0-0.818,0
				c-0.355,0-0.434-0.275-0.317-0.653c0.136-0.442,0.376-1.135,0.376-1.135h3.6c0,0,0.199,0.626,0.381,1.196
				c0.141,0.432-0.313,0.592-0.584,0.592c-0.268,0-0.698,0-0.698,0v2.548h7.134v-2.679
				C241.253,12.197,241.131,12.197,240.539,12.197z M232.004,8.806l1.234-3.712h0.041l1.183,3.712H232.004z"/>
			<path fill="#FFFFFF" d="M257.268,12.197c-0.484,0-0.565-0.234-0.809-0.56c-0.242-0.325-1.749-2.678-1.749-2.678
				s2.207-0.623,2.207-2.978s-1.964-3.194-2.8-3.41c-0.833-0.217-2.637-0.327-3.122-0.327c-0.156,0-2.423,0-2.423,0h-6.168v2.689
				c0,0,0.375,0,0.85,0c0.529,0,0.602,0.266,0.602,0.635c0,0.122,0,5.738,0,6.001c0,0.265-0.039,0.628-0.627,0.628
				c-0.403,0-0.822,0-0.822,0v2.679h7.566v-2.679c0,0-0.299,0-0.772,0c-0.527,0-0.593-0.292-0.593-0.609c0-0.043,0-0.933,0-2.041
				l0,0h1.689l3.094,5.329h4.745v-2.679C258.135,12.197,257.751,12.197,257.268,12.197z M250.323,7.363c-0.565,0-1.716,0-1.716,0
				l0,0c0-1.248,0-2.349,0-2.599c0.521,0,1.427,0,1.869,0c0.545,0,1.516,0.191,1.516,1.325
				C251.992,6.934,251.361,7.363,250.323,7.363z"/>
			<path fill="#FFFFFF" d="M265.127,2.054c-5.27,0-7.179,3.545-7.179,6.39c0,3.771,2.636,6.652,7.125,6.652
				c4.001,0,7.151-2.194,7.151-6.491C272.225,4.517,269.225,2.054,265.127,2.054z M265.212,12.438c-1.157,0-2.377-0.692-2.377-4.214
				c0-2.166,0.827-3.514,2.242-3.514c1.335,0,2.313,0.895,2.313,3.763C267.391,11.573,266.377,12.438,265.212,12.438z"/>
		</g>
		<g>
			<path fill="#FFFFFF" d="M293.471,2.209c-1.109-0.405-1.517-0.56-2.269-0.56c-1.153,0-1.737,0.632-2.052,2.194l-0.168,0.895h1.944
				l-0.292,1.578h-1.967l-1.298,7.021c-0.167,0.896-0.606,1.896-1.088,2.475c-0.671,0.825-1.987,1.368-3.349,1.368
				c-0.293,0-0.648-0.018-1.066-0.087c-0.669-0.123-0.963-0.209-1.676-0.562l0.964-1.65c0.88,0.388,1.317,0.51,1.884,0.51
				c0.964,0,1.736-0.843,1.988-2.158l1.255-6.916h-1.966l0.287-1.598l2.014,0.021l0.293-1.547C287.287,1.194,288.919,0,291.241,0
				c0.253,0,0.522-0.002,0.837,0.035c0.41,0.047,0.99,0.126,1.688,0.349L293.471,2.209z"/>
			<path fill="#FFFFFF" d="M297.131,7.183c-0.15-0.08-0.229-0.095-0.359-0.095c-0.322,0-0.645,0.142-1.041,0.493
				c-0.475,0.396-0.834,0.856-1.099,1.412c-0.264,0.524-0.397,0.966-0.586,1.984L293.8,12.31h-2.252l1.394-7.519l1.938,0.028
				l-0.359,2.206c0.172-0.255,0.303-0.445,0.379-0.572c0.303-0.414,0.644-0.81,1.002-1.143c0.397-0.381,0.777-0.541,1.307-0.541
				c0.286,0,0.456,0.064,0.795,0.254L297.131,7.183z"/>
		</g>
		<path fill="#FFFFFF" d="M280.165,8.575c0,1.198-0.964,2.166-2.155,2.166s-2.156-0.968-2.156-2.166
			c0-1.197,0.965-2.168,2.156-2.168S280.165,7.378,280.165,8.575z"/>
	</g>
</g>
<g>
	<path fill="#FFFFFF" d="M156.176,38.229c0.14,2.625,1.715,4.375,4.936,4.375c1.505,0,3.185-0.07,5.46-0.7l0.525,3.605
		c-2.31,0.665-4.375,0.84-6.65,0.84c-6.721,0-9.101-3.57-9.101-9.101c0-5.495,2.38-9.101,9.031-9.101
		c7.526,0,7.946,5.181,7.211,10.081H156.176z M156.176,35.359h6.931c0.315-1.926-0.14-3.711-3.01-3.711
		C157.576,31.648,156.386,33.119,156.176,35.359z M162.721,26.398h-3.5l1.925-4.901h4.341L162.721,26.398z"/>
	<path fill="#FFFFFF" d="M181.271,33.854v-1.75c-0.98-0.175-1.715-0.175-2.345-0.175c-2.73,0-4.2,1.82-4.2,5.32
		s1.47,5.355,4.2,5.355c1.295,0,2.416,0,5.321-0.7l0.805,3.605c-2.101,0.525-3.886,0.84-6.126,0.84c-6.791,0-9.031-3.57-9.031-9.101
		c0-5.495,2.24-9.101,9.031-9.101c2.24,0,4.025,0.314,6.126,0.84v4.865H181.271z"/>
	<path fill="#FFFFFF" d="M186.52,37.249c0-5.495,2.345-9.101,8.506-9.101s8.471,3.605,8.471,9.101c0,5.53-2.31,9.101-8.471,9.101
		S186.52,42.779,186.52,37.249z M191.351,37.249c0,3.256,0.805,5.355,3.675,5.355s3.675-2.1,3.675-5.355
		c0-3.221-0.805-5.32-3.675-5.32S191.351,34.028,191.351,37.249z"/>
	<path fill="#FFFFFF" d="M216.096,42.255h1.75v-7.176c0-2.03-0.77-3.15-2.8-3.15c-1.435,0-2.8,0.77-3.675,1.33v8.996h1.75V46h-8.296
		v-3.745h1.996v-9.977h-1.996v-3.78h6.546v2.275h0.07c1.505-1.61,3.431-2.625,5.706-2.625c3.5,0,5.25,2.275,5.25,5.88v8.227h2.03V46
		h-8.331V42.255z"/>
	<path fill="#FFFFFF" d="M225.37,37.249c0-5.495,2.345-9.101,8.505-9.101c6.161,0,8.471,3.605,8.471,9.101
		c0,5.53-2.31,9.101-8.471,9.101C227.715,46.35,225.37,42.779,225.37,37.249z M230.2,37.249c0,3.256,0.806,5.355,3.675,5.355
		c2.871,0,3.676-2.1,3.676-5.355c0-3.221-0.805-5.32-3.676-5.32C231.006,31.929,230.2,34.028,230.2,37.249z"/>
	<path fill="#FFFFFF" d="M254.701,42.255h1.75v-7.386c-0.07-1.855-0.98-2.94-2.801-2.94c-1.365,0-2.555,0.77-3.43,1.33v8.996h1.75
		V46h-8.297v-3.745h1.996v-9.977h-1.996v-3.78h6.547v2.275h0.069c1.12-1.226,2.556-2.24,4.341-2.485
		c0.525-0.07,1.05-0.104,1.574-0.07c2.136,0.105,3.536,1.155,4.236,2.836c1.785-1.995,3.815-2.905,6.056-2.905
		c3.5,0,5.251,2.275,5.251,5.88v8.227h2.029V46h-8.33v-3.745h1.75v-7.176c0-2.03-0.91-3.15-2.801-3.15
		c-1.33,0-2.555,0.77-3.43,1.365c0,0.49,0.035,1.015,0.035,1.575v7.386h1.75V46h-8.051V42.255z"/>
	<path fill="#FFFFFF" d="M274.824,28.498h6.546v13.757h2.03V46h-8.576v-3.745h1.996v-9.977h-1.996V28.498z M281.37,21.497v4.831
		h-4.55v-4.831H281.37z"/>
	<path fill="#FFFFFF" d="M289.176,38.229c0.14,2.625,1.715,4.375,4.936,4.375c1.504,0,3.186-0.07,5.461-0.7l0.523,3.605
		c-2.311,0.665-4.375,0.84-6.65,0.84c-6.721,0-9.101-3.57-9.101-9.101c0-5.495,2.38-9.101,9.03-9.101
		c7.527,0,7.947,5.181,7.211,10.081H289.176z M289.176,35.359h6.93c0.316-1.926-0.139-3.711-3.01-3.711
		C290.575,31.648,289.385,33.119,289.176,35.359z"/>
</g>
</svg>
