<?xml version="1.0" encoding="UTF-8" standalone="no"?>
<!-- Created with Inkscape (http://www.inkscape.org/) -->

<svg
   xmlns:dc="http://purl.org/dc/elements/1.1/"
   xmlns:cc="http://creativecommons.org/ns#"
   xmlns:rdf="http://www.w3.org/1999/02/22-rdf-syntax-ns#"
   xmlns:svg="http://www.w3.org/2000/svg"
   xmlns="http://www.w3.org/2000/svg"
   xmlns:sodipodi="http://sodipodi.sourceforge.net/DTD/sodipodi-0.dtd"
   xmlns:inkscape="http://www.inkscape.org/namespaces/inkscape"
   width="210mm"
   height="297mm"
   viewBox="0 0 744.09448819 1052.3622047"
   id="svg2"
   version="1.1"
   inkscape:version="0.91 r13725"
   sodipodi:docname="bisounours.svg">
  <defs
     id="defs4" />
  <sodipodi:namedview
     id="base"
     pagecolor="#ffffff"
     bordercolor="#666666"
     borderopacity="1.0"
     inkscape:pageopacity="0.0"
     inkscape:pageshadow="2"
     inkscape:zoom="1.4"
     inkscape:cx="210.89353"
     inkscape:cy="569.63685"
     inkscape:document-units="px"
     inkscape:current-layer="layer1"
     showgrid="false"
     inkscape:window-width="1536"
     inkscape:window-height="801"
     inkscape:window-x="-8"
     inkscape:window-y="-8"
     inkscape:window-maximized="1" />
  <metadata
     id="metadata7">
    <rdf:RDF>
      <cc:Work
         rdf:about="">
        <dc:format>image/svg+xml</dc:format>
        <dc:type
           rdf:resource="http://purl.org/dc/dcmitype/StillImage" />
        <dc:title />
      </cc:Work>
    </rdf:RDF>
  </metadata>
  <g
     inkscape:label="Calque 1"
     inkscape:groupmode="layer"
     id="layer1">
    <path
       style="fill:#000000;fill-opacity:1"
       d="m 157.31912,625.48453 c -2.1501,-0.82118 -5.36856,-2.60611 -7.15213,-3.9665 -2.64465,-2.01718 -3.34736,-2.20113 -3.80934,-0.99721 -1.13507,2.95794 -4.96957,1.52432 -10.09366,-3.77376 -12.63065,-13.05953 -9.31693,-31.39233 7.80591,-43.18528 l 5.40608,-3.72331 -1.87379,-4.93143 c -1.07424,-2.82717 -1.8738,-7.48709 -1.8738,-10.92071 0,-4.65713 -0.33363,-5.98927 -1.5,-5.98927 -2.15853,0 -1.91038,-6.49935 0.44634,-11.69031 1.04634,-2.30467 3.74329,-6.18741 5.99323,-8.62831 l 4.09081,-4.438 -0.61982,-8.37169 c -0.4502,-6.08076 -0.17532,-10.25906 1.00451,-15.26866 0.89337,-3.79334 1.45019,-7.07111 1.23735,-7.28394 -0.59712,-0.59713 -10.27317,7.30137 -12.04704,9.83392 -1.45209,2.07315 -1.42898,2.4104 0.29451,4.29832 2.84517,3.11661 3.34048,6.03763 1.69257,9.98163 -1.93377,4.62816 -5.51265,6.10484 -11.52546,4.75554 -3.60142,-0.80818 -4.89644,-0.69113 -6.9035,0.62394 -3.1903,2.09037 -11.83174,1.99842 -16.18282,-0.17219 -1.80838,-0.90214 -4.9473,-1.64025 -6.97539,-1.64025 -13.136193,0 -24.005293,-9.18669 -24.005293,-20.28956 0,-3.88793 -0.24786,-4.3605 -2.25,-4.28984 -1.91984,0.0677 -2.2983,-0.50754 -2.57916,-3.9206 -0.81565,-9.91189 6.16703,-18.45864 16.89018,-20.67348 4.96501,-1.0255 5.67867,-1.4444 4.90943,-2.88174 -0.49505,-0.925 -0.61592,-1.96598 -0.2686,-2.3133 1.20118,-1.20118 6.296753,-0.62386 11.311453,1.28158 l 5.03476,1.91305 2.11672,-4.16305 c 5.71298,-11.23597 16.34369,-23.58515 25.76476,-29.92967 l 4.95939,-3.33985 -2.37637,-2.94677 c -2.32815,-2.88697 -2.40636,-2.90645 -3.85415,-0.96005 -1.44109,1.93741 -1.52864,1.9407 -3.52679,0.1324 -2.20276,-1.99348 -4.68965,-8.6173 -5.70224,-15.1879 -0.51391,-3.33472 -1.01514,-4.05638 -2.77821,-4 -1.95807,0.0626 -2.13831,-0.40934 -2.00788,-5.25754 0.177,-6.57954 2.53251,-12.94073 6.92057,-18.68939 l 3.34989,-4.38861 -1.18278,-11.12881 -1.18278,-11.12881 -3.19631,-1.3355 c -5.16985,-2.1601 -6.86105,-5.76064 -6.79213,-14.46029 0.0485,-6.11833 0.58582,-8.63726 2.84622,-13.34215 1.88852,-3.93085 2.83711,-7.58503 2.94361,-11.33947 0.13406,-4.72591 0.56878,-5.89367 2.95954,-7.95012 3.3431,-2.87562 11.60404,-3.42502 13.69088,-0.91053 1.32992,1.60246 4,2.04901 4,0.66898 0,-0.45706 -1.13531,-1.43862 -2.52292,-2.18125 -3.91351,-2.09444 -2.35395,-3.49026 3.86873,-3.46255 l 5.65419,0.0252 0,-3.34093 c 0,-3.68632 1.50866,-7.20944 3.0872,-7.20944 0.55926,0 1.48745,1.35 2.06264,3 0.5752,1.65 1.24179,3 1.48132,3 0.23953,0 2.01051,-1.575 3.93551,-3.5 4.30317,-4.30317 7.97609,-4.79865 7.00901,-0.94551 l -0.64114,2.55449 6.48161,-0.30449 c 5.96649,-0.28029 6.5316,-0.50318 7.11064,-2.80449 1.1302,-4.49182 5.68401,-7.8676 6.66067,-4.93761 0.24996,0.74986 1.17617,0.74986 3.14844,0 7.23199,-2.7496 15.00612,-0.0761 17.97568,6.18179 0.90833,1.91416 2.30589,4.02338 3.10569,4.68716 2.16729,1.79869 2.93678,6.79968 1.55831,10.12761 -1.15,2.77634 -0.933,3.2743 4.21994,9.68395 2.98775,3.7164 7.40154,9.56525 9.80842,12.99744 3.59592,5.12774 5.01086,6.35784 7.93611,6.89939 6.34343,1.17434 13.92319,4.1701 18.4752,7.30196 3.94233,2.71239 4.50656,2.86157 4.95353,1.30969 1.0691,-3.71195 0.91665,-11.8857 -0.27514,-14.75138 -1.54533,-3.71578 0.0168,-9.95356 2.87587,-11.48368 2.87631,-1.53936 8.15047,-1.21772 10.18217,0.62095 1.67556,1.51636 2.24008,1.51636 7.64435,0 7.37395,-2.06903 19.46465,-2.10852 25.40924,-0.083 9.66187,3.29213 16.79473,12.56473 16.79473,21.83287 0,2.96515 0.58444,5.34015 1.55228,6.30799 1.70036,1.70036 1.25908,5.74461 -1.13919,10.44036 -3.1428,6.15353 -15.13544,13.8645 -21.56305,13.8645 -1.59678,0 -1.7845,0.97662 -1.70996,8.89589 0.0461,4.89275 -0.46145,10.54785 -1.1278,12.56691 -1.05124,3.18527 -0.98737,3.83493 0.48267,4.90985 1.55619,1.13792 1.56848,1.53977 0.15083,4.9327 -0.84887,2.03163 -2.74484,5.26904 -4.21328,7.19426 -2.13001,2.79259 -2.34257,3.50039 -1.05119,3.50039 6.13718,0 -4.54767,13.89416 -16.46325,21.40815 l -4.58194,2.88938 3.83029,7.40186 c 2.10666,4.07101 4.33757,9.41645 4.95758,11.87874 0.93218,3.70202 1.45171,4.37392 3.00165,3.88199 2.05352,-0.65176 2.31973,0.28569 1.92815,6.78988 -0.1717,2.85193 0.15405,3.75 1.36022,3.75 2.05819,0 2.03316,2.40998 -0.0466,4.48977 -1.32593,1.32594 -1.41986,2.09961 -0.5,4.11848 0.62295,1.36722 1.13263,3.37326 1.13263,4.45786 0,1.60412 -0.46638,1.85494 -2.5,1.34453 -2.29102,-0.575 -2.50273,-0.34672 -2.53265,2.73095 -0.018,1.84713 -0.84573,5.71183 -1.8395,8.58823 l -1.80686,5.22982 3.03662,6.12658 c 2.49457,5.03296 3.10999,7.66949 3.44769,14.77018 0.51506,10.83 -1.04595,17.57544 -3.89486,16.83043 -1.50223,-0.39284 -2.41609,0.38401 -3.92036,3.33261 -1.07882,2.11467 -2.41793,4.12695 -2.97579,4.47173 -1.93205,1.19407 -0.98991,2.15091 4.26073,4.32718 11.15883,4.62509 17.72494,13.53881 17.72494,24.06227 0,8.80834 -5.81354,18.17887 -9.4209,15.18503 -0.93516,-0.77611 -2.38029,-0.0188 -5.55262,2.90991 -6.18189,5.70708 -11.29219,7.38534 -20.75972,6.81762 -8.65423,-0.51895 -13.87919,-2.70162 -23.14001,-9.66649 -3.7445,-2.81616 -6.77573,-4.22946 -10,-4.66247 -13.1129,-1.76104 -19.47382,-5.63536 -21.10157,-12.85258 -1.20422,-5.33936 0.20139,-9.77379 5.41314,-17.07741 5.82773,-8.16682 7.56168,-12.26811 7.56168,-17.88548 0,-3.64127 -0.36735,-4.51155 -2.09507,-4.96336 -4.42947,-1.15833 -14.40516,12.22008 -17.95355,24.07754 -1.17279,3.91904 -1.10665,4.44341 0.81984,6.5 4.26947,4.55779 5.49363,12.39044 2.76206,17.67271 -0.80669,1.55997 -4.09697,5.25012 -7.31173,8.20034 -3.35837,3.08201 -7.03534,7.70388 -8.64296,10.86402 -3.89768,7.66177 -10.32755,15.80549 -14.83364,18.78748 -4.78418,3.16602 -16.05188,4.03064 -22.15422,1.69999 z m 15.90927,-2.58656 c 5.08332,-1.38257 13.59124,-9.97329 18.74575,-18.92817 2.06016,-3.5791 6.43482,-9.10388 9.72147,-12.27729 6.79492,-6.56082 8.62381,-10.97104 6.99538,-16.86874 -1.15542,-4.18459 -3.67404,-6.88631 -4.37154,-4.68933 -1.29754,4.08699 -1.5636,3.82855 -1.17089,-1.13738 0.721,-9.11731 4.18576,-18.37344 9.51122,-25.40935 l 4.85089,-6.40891 -3.32109,-0.62304 c -1.8266,-0.34268 -6.54425,-2.23552 -10.48366,-4.20633 -12.4874,-6.24719 -22.3179,-18.09358 -23.73514,-28.60237 -0.5594,-4.14796 -0.58686,-4.1712 -3.24744,-2.7473 -2.60813,1.39583 -3.48454,-0.40652 -1.9726,-4.05667 1.09533,-2.64434 0.98169,-3.12449 -1.15368,-4.8748 -2.29093,-1.87783 -2.30689,-1.98744 -0.48639,-3.3397 1.80187,-1.33842 1.80785,-1.51172 0.14004,-4.05712 -2.11979,-3.23521 -1.35796,-6.07441 1.39544,-5.20051 1.70754,0.54195 2.00257,-0.0496 2.5841,-5.18105 2.30839,-20.36944 11.50522,-37.84437 24.18621,-45.95631 4.63693,-2.9662 5.15336,-3.61758 4.14645,-5.2299 -0.63259,-1.01294 -0.84526,-2.63627 -0.4726,-3.60739 0.56114,-1.46232 1.44733,-1.66018 5.15782,-1.1516 3.5094,0.48102 4.48026,0.30339 4.48026,-0.81973 0,-0.7886 0.53162,-2.60059 1.18138,-4.02665 1.57637,-3.45977 5.1939,-3.07512 5.62046,0.59762 l 0.30184,2.59889 3.95099,-1.95479 c 4.40131,-2.1776 6.94533,-1.77445 6.94533,1.10063 0,1.93602 3.34334,3.15638 8.64734,3.15638 3.24838,0 10.37248,-6.74165 15.74116,-14.8961 10.10741,-15.35211 12.07815,-30.69447 5.98301,-46.57816 -0.42971,-1.1198 -0.14815,-1.37726 1.01715,-0.93009 2.74372,1.05286 1.78454,-1.19884 -2.13866,-5.02056 -4.18823,-4.07989 -11.23148,-7.68462 -18.75,-9.59624 -4.70055,-1.19514 -5.35934,-1.78656 -11,-9.87506 -8.78018,-12.59047 -21.50928,-25.08435 -29.5,-28.95486 -10.267,-4.97309 -18.77374,-5.95082 -30,-3.44806 -2.05021,0.45707 -2.2751,0.31822 -1.25,-0.77176 0.6875,-0.73101 1.25,-1.68911 1.25,-2.12911 0,-1.6609 -2.12318,-0.68351 -5.87154,2.70291 l -3.8773,3.5029 -0.60058,-3.0029 c -0.916,-4.57999 -2.65058,-3.57773 -2.65058,1.53153 l 0,4.53445 -5,-0.66328 c -5.58863,-0.74136 -6.3016,-0.15146 -2.33124,1.92882 l 2.66877,1.39831 -2.61395,1.71272 c -2.27707,1.49199 -2.48498,2.0519 -1.6133,4.3446 1.11191,2.92454 0.42594,6.92049 -1.58102,9.20994 -0.72321,0.825 -1.48601,4.68561 -1.69513,8.57913 -0.25896,4.82179 -0.99725,8.01052 -2.3153,10 -1.06431,1.60648 -1.80386,3.97443 -1.64345,5.26212 0.43213,3.46879 -1.67861,7.74807 -4.44297,9.00759 -2.15061,0.97989 -2.42095,1.71899 -2.33351,6.37972 0.18351,9.78164 1.32468,16.29477 2.79941,15.97733 0.75149,-0.16176 -0.61528,1.90993 -3.03726,4.60376 -4.47551,4.97785 -7.86105,13.03252 -7.86105,18.70256 l 0,2.83642 2.5,-2.34863 2.5,-2.34863 0.022,7.92432 c 0.0157,5.65435 0.57457,9.14174 1.95111,12.17431 2.15193,4.74081 4.02693,5.55563 4.02693,1.75 0,-3.29779 1.59793,-3.1782 3.37194,0.25236 0.78281,1.5138 2.32647,3.56972 3.43034,4.56871 1.77698,1.60814 2.48127,1.67426 6.14431,0.57679 3.83981,-1.15044 4.09258,-1.44303 3.5157,-4.06954 -0.78595,-3.57841 1.2776,-4.55062 6.35279,-2.993 3.41247,1.04732 3.83873,0.92332 6.84607,-1.99151 3.76502,-3.64921 6.93431,-3.35246 5.953,0.55739 -0.5836,2.32527 -0.49814,2.36014 3.55313,1.44988 5.00701,-1.125 6.96519,0.10589 5.04921,3.17388 -1.00553,1.6101 -0.97727,1.97504 0.15291,1.97504 1.7028,0 8.98502,2.97966 8.48869,3.47331 -0.19695,0.19588 -3.7114,-0.4323 -7.80989,-1.39596 -6.33257,-1.48895 -7.1599,-1.91546 -5.50833,-2.83972 3.04341,-1.70318 0.94841,-2.60485 -3.45522,-1.48709 l -3.98717,1.01206 0.53208,-3.1313 0.53208,-3.1313 -3.03736,3.21713 c -2.96073,3.13598 -3.12354,3.18113 -6.4538,1.78965 -4.21181,-1.7598 -5.36425,-0.87416 -2.63828,2.0275 l 2.05049,2.18265 -4.66527,1.30619 c -5.52239,1.54617 -16.79896,8.74218 -24.21095,15.44992 -5.64891,5.11219 -12.57454,14.27319 -16.1461,21.35756 l -2.18326,4.33061 4.34332,4.66939 c 4.80977,5.17086 8.19383,10.36261 9.23583,14.1694 0.37637,1.375 -0.73432,0.0887 -2.46819,-2.85853 -5.89171,-10.01458 -17.64067,-19.10089 -24.73807,-19.1317 -2.641993,-0.0115 -2.814453,0.70904 -0.72293,3.02015 1.41337,1.56174 1.07135,1.72872 -4.593053,2.24235 -11.24265,1.01944 -18.93402,8.1129 -18.93402,17.46213 0,4.615 0.16121,4.78487 3.06574,3.23042 1.79406,-0.96016 1.93426,-0.6679 1.93426,4.03211 0,11.29443 6.61816,18.41117 19.079113,20.51644 3.96833,0.67044 4.24983,0.58791 3.0257,-0.88708 -1.95489,-2.35551 -0.63171,-2.00335 4.00706,1.06644 5.66093,3.74623 13.95704,4.33309 19.71668,1.39474 2.2943,-1.17047 4.17145,-1.72522 4.17145,-1.23279 0,0.49242 1.3818,1.17168 3.07067,1.50945 6.05038,1.21008 11.14081,-3.97172 9.37309,-9.54133 -0.35037,-1.10391 -2.50605,-2.85576 -4.7904,-3.893 -2.28435,-1.03723 -3.34211,-1.89576 -2.35059,-1.90784 0.99153,-0.0121 4.23512,-2.64919 7.208,-5.86025 5.31345,-5.73916 15.42444,-12.16542 19.12921,-12.15797 1.37431,0.003 1.04547,0.50043 -1.25933,1.90585 -1.72627,1.05264 -3.65083,3.39559 -4.30941,5.24626 -1.51757,4.26452 -2.55913,19.42991 -1.66266,24.20856 0.61949,3.30212 0.88282,3.55001 2.72424,2.56451 3.72973,-1.99609 2.96238,-0.26689 -1.14456,2.57921 -4.89389,3.39147 -10.46218,10.74935 -12.49485,16.51055 -1.87754,5.32152 -1.88665,5.24091 0.50659,4.48132 1.89631,-0.60187 2.00051,-0.17764 2.00977,8.18261 0.011,9.96406 2.1396,16.00111 7.99178,22.66637 4.31986,4.92005 3.3721,5.55125 -1.55664,1.0367 l -3.91591,-3.58684 -3.28556,1.7694 c -4.54126,2.44562 -11.96945,10.61327 -14.27847,15.69984 -2.46623,5.4329 -2.63,15.29239 -0.31161,18.75941 2.44918,3.6626 6.58786,8.00442 8.74295,9.17205 1.63549,0.88612 1.82029,0.73675 1.34362,-1.08605 -0.70414,-2.69263 -0.1427,-2.65613 3.66568,0.2383 9.04034,6.8708 17.29474,8.94248 26.09439,6.54912 z m 40,-216.0873 c -1.1,-0.61907 -3.6888,-2.63039 -5.75288,-4.4696 -2.06409,-1.8392 -4.35161,-3.34401 -5.08339,-3.34401 -0.73178,0 -3.07507,-1.50805 -5.2073,-3.35122 l -3.87679,-3.35122 -1.78441,2.10122 c -1.73007,2.03723 -1.73889,1.98799 -0.28982,-1.61666 2.16285,-5.38022 1.93707,-11.93005 -0.50146,-14.5475 -2.3788,-2.55335 -7.63573,-3.71388 -12.60238,-2.78213 -2.19036,0.41091 -3.36859,0.30317 -3.01105,-0.27535 0.32306,-0.52273 2.17183,-1.24766 4.10837,-1.61095 3.07058,-0.57605 3.39179,-0.90194 2.51105,-2.54763 -1.31031,-2.44832 -1.29626,-8.61504 0.0252,-11.0843 0.5712,-1.06721 2.08522,-1.93426 3.3776,-1.93426 2.45421,0 5.04261,2.21131 3.91192,3.34201 -0.3619,0.36189 -0.12638,0.65799 0.52337,0.65799 0.64975,0 2.00967,1.36203 3.02203,3.02674 1.60337,2.63652 2.00403,2.8299 3.10775,1.5 0.99322,-1.19676 1.00588,-1.84147 0.0585,-2.98293 -1.47557,-1.77802 -0.54771,-3.54381 1.86219,-3.54381 0.97926,0 2.34226,-1.233 3.0289,-2.74001 1.12014,-2.45844 1.37351,-2.56895 2.46562,-1.07541 1.12482,1.53829 1.5741,1.49959 5.92039,-0.50999 2.9941,-1.38436 4.51849,-2.65855 4.1949,-3.50638 -0.27957,-0.73248 -0.50831,-2.44654 -0.50831,-3.80901 0,-1.39685 -0.43613,-2.20769 -1,-1.8592 -1.30785,0.8083 -1.28545,-2.09811 0.0352,-4.56574 2.28548,-4.27046 9.29625,-1.15891 12.80745,5.68426 1.72208,3.35626 0.17405,3.55475 -2.54274,0.32603 -1.69778,-2.01767 -3.39405,-2.94455 -5.3888,-2.94455 -2.52823,0 -2.90073,0.36169 -2.83216,2.75 0.0434,1.5125 0.30592,2.1875 0.58333,1.5 0.27741,-0.6875 1.16844,-1.25 1.98007,-1.25 0.81163,0 1.25382,0.35899 0.98265,0.79775 -0.27117,0.43876 -0.0642,1.45126 0.45999,2.25 0.816,1.24346 1.14421,1.20289 2.28289,-0.28221 1.53784,-2.00569 2.61838,-1.33593 2.6638,1.65113 0.0289,1.89835 0.21485,1.83779 2.09469,-0.68216 1.13466,-1.52103 3.01742,-3.27628 4.1839,-3.90056 1.81809,-0.97301 1.73318,-0.6743 -0.59469,2.09222 -3.43098,4.07749 -3.4015,5.0425 0.2613,8.55168 3.80424,3.6447 5.30704,8.27598 5.34747,16.47971 0.0358,7.26031 -2.89847,14.46426 -7.72536,18.96675 -1.80526,1.68393 -2.59899,3.45387 -2.59899,5.79546 0,2.2459 -0.81929,4.19043 -2.45455,5.82568 -2.66506,2.66506 -4.9292,3.02195 -8.04545,1.26816 z m 6.5,-2.81361 c 2.31546,-2.31546 2.66389,-6 0.56739,-6 -0.78794,0 -1.71826,0.9 -2.06739,2 -0.66122,2.08332 -3.92682,2.73644 -5,1 -0.33992,-0.55 -1.60398,-0.98681 -2.80902,-0.97069 -2.02012,0.027 -1.9363,0.26098 1.0748,3 3.83819,3.49139 5.51576,3.68915 8.23422,0.97069 z m -4.56351,-6.08832 c 5.73773,-1.44478 10.48767,-5.5207 14.04979,-12.05613 5.49549,-10.08256 3.11175,-24.40077 -4.74609,-28.50793 -4.43717,-2.31923 -11.42739,-2.05801 -16.68349,0.62345 -3.43831,1.7541 -4.49463,1.93839 -5.13856,0.89648 -0.63126,-1.02141 -0.95671,-0.93061 -1.47133,0.41048 -0.36343,0.94708 -1.28764,1.72197 -2.0538,1.72197 -0.76615,0 -1.39301,0.45 -1.39301,1 0,0.55 0.4729,1 1.05089,1 0.57799,0 -0.0439,1.4625 -1.38194,3.25 -1.33806,1.7875 -3.13783,4.64541 -3.99948,6.35091 -1.40488,2.78074 -1.40954,3.32518 -0.0451,5.27313 0.91811,1.31079 1.45734,4.04677 1.35972,6.8991 -0.089,2.59977 -0.12178,5.25872 -0.0729,5.90877 0.17902,2.38106 10.52414,8.1274 14.89604,8.2742 0.71895,0.0241 3.25214,-0.44586 5.62931,-1.04443 z m -8.43649,-16.91168 c 0,-0.55 0.45,-1 1,-1 0.55,0 1,0.45 1,1 0,0.55 -0.45,1 -1,1 -0.55,0 -1,-0.45 -1,-1 z m -4,-5.05902 c 0,-0.58246 0.45,-0.7809 1,-0.44098 0.55,0.33992 1,0.81648 1,1.05902 0,0.24254 -0.45,0.44098 -1,0.44098 -0.55,0 -1,-0.47656 -1,-1.05902 z m 15,-0.77405 c -2.475,-0.73319 -5.09264,-1.51813 -5.81697,-1.74431 -0.78283,-0.24446 -1.18841,-1.5289 -1,-3.16693 0.26283,-2.28503 0.86149,-2.80842 3.50512,-3.06443 2.39991,-0.23242 3.26525,-0.85051 3.5,-2.5 0.19574,-1.37542 1.1364,-2.30851 2.5265,-2.50618 2.85745,-0.40632 3.76971,2.89168 2.62409,9.48657 l -0.83874,4.82835 z m -26.48114,-9.77849 c -2.2561,-3.44324 -4.51836,-4.10961 -6.19011,-1.82335 -1.20693,1.65057 -1.15693,1.97901 0.39461,2.59219 0.97715,0.38618 1.38404,0.73378 0.9042,0.77243 -0.47985,0.0387 -0.27853,0.78593 0.44738,1.66059 1.20217,1.44852 1.43151,1.43757 2.57255,-0.12289 1.12995,-1.54531 1.32857,-1.43166 2.02668,1.1597 0.72019,2.67328 0.7985,2.71254 1.12703,0.56507 0.19418,-1.26929 -0.38287,-3.43098 -1.28234,-4.80374 z m -6.3913,-4.13844 c 1.24387,-1.58606 1.2085,-1.62143 -0.37756,-0.37756 -0.9625,0.75485 -1.75,1.54235 -1.75,1.75 0,0.82304 0.82119,0.29331 2.12756,-1.37244 z M 215.8651,342.2093 c -0.72144,-0.24048 -1.78716,0.0382 -2.36826,0.61931 -0.74207,0.74207 -0.35164,0.87221 1.31171,0.43724 1.3522,-0.35361 1.8055,-0.8069 1.05655,-1.05655 z m -47.51549,12.41473 c -0.81794,-3.25896 1.71402,-9.62697 3.82775,-9.62697 1.78459,0 2.05608,2.09495 0.47624,3.67479 -0.59114,0.59114 -1.65397,2.75949 -2.36184,4.81856 -1.26197,3.67083 -1.29981,3.69291 -1.94215,1.13362 z m 46.37878,-26.21028 c -1.375,-0.76296 -3.7375,-1.39384 -5.25,-1.40195 -1.86981,-0.01 -2.75,-0.53672 -2.75,-1.64558 0,-2.37466 6.62272,-1.11018 9.09098,1.73574 1.04996,1.21062 1.90902,2.35727 1.90902,2.54811 0,0.43205 0.026,0.44278 -3,-1.23632 z m 65.7655,271.6033 c 2.34603,-1.06485 6.73353,-4.27024 9.75,-7.1231 4.66271,-4.40979 5.4845,-4.86559 5.4845,-3.04195 0,3.05421 1.26401,2.65601 3.50738,-1.10494 1.3301,-2.22987 1.91312,-4.97638 1.85742,-8.75 -0.15164,-10.27352 -5.41009,-17.9521 -15.34823,-22.41208 -6.02385,-2.70334 -6.04337,-2.7051 -8.77692,-0.79042 -6.40207,4.48421 -7.42682,4.29332 -2.66779,-0.49696 2.71048,-2.72828 6.50314,-7.9531 8.42814,-11.61072 2.15192,-4.08879 4.06531,-6.56156 4.9677,-6.42002 2.0064,0.31469 3.44918,-7.77763 2.59936,-14.57938 -0.36172,-2.89509 -1.64978,-7.39745 -2.86236,-10.00526 l -2.2047,-4.74146 -4.74932,6.44495 c -5.28733,7.17505 -14.53207,14.02564 -21.40969,15.86512 -3.24846,0.86883 -4.01149,1.43832 -3.21424,2.39895 2.04251,2.46108 -0.19898,3.58244 -6.28153,3.14247 -5.47166,-0.39579 -5.941,-0.26174 -6.47052,1.84802 -0.89148,3.55195 -2.86795,4.72068 -4.76875,2.81988 -0.88327,-0.88327 -1.60595,-2.09355 -1.60595,-2.68951 0,-0.59595 -0.82293,-0.33881 -1.82874,0.57143 -1.00581,0.91025 -2.54854,1.65499 -3.42828,1.65499 -1.12991,0 -1.97432,1.67466 -2.87599,5.70373 -0.70204,3.13705 -2.67479,7.74955 -4.3839,10.25 -1.7091,2.50045 -4.35786,6.34627 -5.88613,8.54627 -2.27184,3.27041 -2.69359,4.77256 -2.31228,8.23557 0.90088,8.18146 4.80176,11.35777 17.05643,13.88829 5.26025,1.08621 8.72681,2.57264 13.07079,5.60464 12.38612,8.64523 24.84365,11.108 34.3536,6.79149 z m -38.63531,-62.96362 c 0.99144,-2.84403 1.19267,-2.9239 5.94798,-2.36071 4.71435,0.55835 6.58727,-0.54833 3.82118,-2.25787 -0.60536,-0.37413 1.42409,-1.53259 4.5099,-2.57435 12.60535,-4.25554 21.98135,-12.75519 28.18533,-25.55094 1.91667,-3.95312 3.75466,-9.46562 4.08442,-12.25 0.48022,-4.05469 0.97,-5.0625 2.46029,-5.0625 2.07344,0 2.34606,-1.2246 0.88172,-3.96074 -0.71119,-1.32887 -0.57441,-2.16501 0.5,-3.0567 1.90821,-1.58367 1.90708,-3.98256 -0.002,-3.98256 -1.18353,0 -1.35489,-0.9191 -0.85345,-4.57749 0.54292,-3.96105 0.39823,-4.53339 -1.07441,-4.25 -1.31615,0.25327 -2.45912,-1.67624 -5.04347,-8.51419 -1.83791,-4.86293 -5.04908,-11.3208 -7.13594,-14.35083 -8.2776,-12.0187 -22.78091,-20.52559 -39.47744,-23.15543 -8.74466,-1.37735 -9.86968,-1.78066 -9.36884,-3.35869 0.7038,-2.21746 -0.72866,-2.27752 -4.74794,-0.19907 -3.20974,1.65982 -4.76441,0.87392 -4.80233,-2.42763 -0.0299,-2.60008 -2.51135,-0.45327 -3.50576,3.03292 -0.91688,3.21442 -1.23303,3.45617 -3.44427,2.63374 -2.64036,-0.98208 -5.06516,-0.47086 -5.06516,1.0679 0,0.5302 0.9,1.24964 2,1.59877 3.0137,0.95651 2.44155,1.99865 -2.24993,4.09813 -2.33746,1.04603 -7.27347,4.867 -10.96892,8.49106 -5.15459,5.05501 -7.64645,8.5475 -10.70238,15 -3.93555,8.3098 -7.07877,20.47088 -7.07877,27.3877 0,3.29928 -0.18388,3.51506 -2.5,2.93375 -2.91545,-0.73173 -3.36272,1.06648 -1.0318,4.14823 1.87404,2.47771 1.89947,3.44113 0.0908,3.44113 -2.61543,0 -2.71714,1.97083 -0.1618,3.13512 2.41869,1.10204 2.45444,1.25106 0.98265,4.09719 -1.8649,3.60631 -1.09036,4.72065 1.59315,2.29211 1.58195,-1.43165 2.0679,-1.51505 2.39193,-0.41054 0.22365,0.76237 0.95129,3.41112 1.61698,5.88612 1.70721,6.3473 5.60775,13.19707 9.87152,17.33545 8.43088,8.18293 23.34896,14.66455 33.75189,14.66455 4.12859,0 5.39466,0.35203 5.39466,1.5 0,1.93914 0.99229,1.89413 3.95248,-0.17927 2.28952,-1.60364 2.46267,-1.58112 3.84448,0.5 1.86734,2.81236 2.10542,2.75776 3.33323,-0.76436 z m 40.96977,-102.17807 c 5.35913,-3.80215 12.68224,-10.69844 14.08464,-13.26373 0.92377,-1.68978 0.75143,-1.81533 -1.66073,-1.20992 -3.04274,0.76368 -3.13967,1.05356 2.47613,-7.40465 5.6533,-8.51469 5.60354,-8.36346 2.16715,-6.58643 l -3.05299,1.57876 2.45022,-5.35198 c 4.86664,-10.63014 5.69556,-26.64035 1.37929,-26.64035 -2.35592,0 -12.72867,-3.8431 -13.42834,-4.97519 -0.28748,-0.46515 1.84147,-0.21636 4.73099,0.55286 13.66756,3.63846 26.79587,-0.28896 33.38637,-9.98775 3.58305,-5.27294 3.92813,-8.0837 1.2249,-9.97712 -1.26643,-0.88704 -1.75247,-1.6128 -1.0801,-1.6128 2.04173,0 1.38713,-7.10452 -1.15826,-12.57086 -4.76886,-10.24138 -14.8047,-15.17396 -28.69381,-14.10291 -4.20998,0.32465 -9.5546,1.24491 -11.87695,2.04503 -3.9209,1.35086 -4.35908,1.31813 -6.13546,-0.45825 -2.38183,-2.38183 -5.08324,-2.43891 -7.71533,-0.16301 -3.1346,2.7104 -3.62553,5.82215 -1.28741,8.16028 1.7162,1.71619 1.85427,2.46671 0.93755,5.09643 -1.03548,2.97037 -0.73228,12.4445 0.58655,18.32779 0.50491,2.25243 0.24713,2.93603 -1.25533,3.32893 -1.7859,0.46702 -1.8065,0.72567 -0.37149,4.6655 0.83557,2.29409 1.5369,7.54607 1.55851,11.67107 0.0749,14.2972 -7.19723,28.87835 -19.17931,38.45593 l -6.20014,4.95592 6.264,2.10969 c 7.97534,2.68606 14.54061,6.54008 20.52266,12.04741 2.5997,2.3934 5.22171,4.36951 5.82669,4.39134 0.60498,0.0218 3.07998,-1.36506 5.5,-3.08199 z M 138.57477,353.3921 c 1.77829,-1.24556 2.23787,-2.42118 2.05233,-5.25 -0.15518,-2.36584 0.53507,-4.87334 1.96683,-7.14504 1.86467,-2.95859 2.1617,-4.67958 1.92018,-11.12552 -0.20685,-5.52046 0.0382,-7.50044 0.88759,-7.17244 1.503,0.58039 3.32669,-2.80845 3.32669,-6.18175 0,-3.74066 -4.14908,-7.52763 -8.20455,-7.48849 -5.63445,0.0544 -8.79545,3.95208 -8.79545,10.8453 0,2.20472 -0.88208,5.50359 -1.96018,7.33083 -2.70089,4.57767 -4.37136,13.09555 -3.59002,18.30588 1.24193,8.28177 6.78942,11.80864 12.39658,7.88123 z m 80.67653,-44.46721 c 0.36172,-1.1397 0.37743,-3.18877 0.0349,-4.5535 -0.73202,-2.91656 -5.79815,-10.15393 -8.36743,-11.95353 -3.18899,-2.23365 -8.4978,-2.64957 -13.18905,-1.0333 -3.12475,1.07656 -4.63505,1.20517 -5.11091,0.43522 -0.42419,-0.68637 -1.08743,-0.32314 -1.78294,0.97644 -1.76552,3.29889 -1.36201,3.90452 3.07399,4.61387 5.30667,0.84857 16.67974,6.7889 20.36783,10.63843 3.35102,3.49772 4.09974,3.62965 4.9736,0.87637 z"
       id="path4147"
       inkscape:connector-curvature="0"
       sodipodi:nodetypes="ssssscssssscsscsssssssscssssscsscssssssscccssssssssscsssssscsssssssssssssssssssssssssssscssssssssscscssssssssssssssssssssssscsssssscssssssssssssssssscsssssssssssssscsscsscssssssssssscccssssssssssssscssscccssscssscssscssssssssssssscscsssssssssscssssssccsssscssssssscscssscssssssssssscssscscssssssssssssscsscsssssssssscsscccssssssssssscssssscsssscssssssssssssssssssscsssssssssssssssscsssssssssssssssscsssssssssssssssscscsssssssssssssssssssccssssscssssssssssssssssssscsscsssssssssssscssscssscc"
       inkscape:export-xdpi="176.09828"
       inkscape:export-ydpi="176.09828" />
    <path
       style="opacity:0.98000004;fill:#ff8a1b;fill-opacity:1;stroke:none;stroke-width:3.84699988;stroke-miterlimit:4;stroke-dasharray:none;stroke-opacity:1"
       d="m 159.1876,622.52828 c -3.85296,-1.27553 -7.18572,-3.02816 -11.25165,-5.91702 -3.91735,-2.78328 -4.81977,-2.96738 -4.81977,-0.98323 0,1.8649 -0.41607,1.80452 -3.11118,-0.45144 -4.15471,-3.47773 -7.36913,-8.45524 -7.85634,-12.16551 -0.58181,-4.43064 0.48289,-10.89907 2.43851,-14.81482 2.18366,-4.37236 8.62562,-11.35135 12.91281,-13.98929 l 3.65853,-2.25111 2.22883,2.03675 c 6.75411,6.17207 7.80609,5.87751 2.71793,-0.76102 -5.11509,-6.67367 -6.60999,-11.17629 -7.08954,-21.35356 -0.38752,-8.22418 -0.42925,-8.39286 -2.07608,-8.39286 -2.2412,0 -2.13347,-0.88075 0.87617,-7.16301 2.00337,-4.18181 3.86549,-6.61401 8.60306,-11.23686 5.93908,-5.79527 6.00455,-5.89657 3.69321,-5.71428 l -2.35306,0.18558 -0.39871,-3.92857 c -0.49703,-4.89724 0.45024,-18.6954 1.50233,-21.88323 0.43191,-1.30873 2.10334,-3.5077 3.71428,-4.88661 1.61094,-1.3789 2.73425,-2.70182 2.49626,-2.93982 -1.533,-1.53299 -12.22391,4.87869 -19.09987,11.45481 -2.55357,2.44222 -5.54123,5.02365 -6.63924,5.73652 l -1.99639,1.29612 3.06782,1.71948 c 3.61959,2.02875 4.85352,3.47205 4.85352,5.67707 0,5.60717 -6.17592,9.10882 -11.6591,6.61052 -1.38508,-0.63109 -2.59279,-0.47064 -6.10973,0.8117 -6.29574,2.29554 -11.96434,1.75216 -18.35256,-1.75925 -4.7956,-2.63599 -6.34104,-2.87227 -4.53235,-0.69294 0.89351,1.07662 0.70093,1.13293 -2.21964,0.6491 -11.568662,-1.91652 -18.315495,-8.18905 -19.023388,-17.68605 -0.531781,-7.1343 -0.767702,-7.83223 -2.359543,-6.9803 -2.443919,1.30795 -2.887011,0.84183 -2.870856,-3.01998 0.04001,-9.56328 7.17786,-15.93352 19.458038,-17.3655 4.485609,-0.52307 5.368059,-1.10522 3.732699,-2.46246 -0.58496,-0.48547 -1.06357,-1.36654 -1.06357,-1.95793 0,-0.86268 0.59214,-0.98058 2.99509,-0.59633 6.63452,1.0609 16.61048,8.83501 22.15072,17.26171 3.3504,5.09596 4.7429,5.98209 3.05596,1.94467 -1.28061,-3.06495 -3.36665,-5.97107 -8.74643,-12.18491 l -3.86819,-4.46789 2.63899,-4.81783 c 6.5724,-11.9988 14.71199,-20.85337 26.28072,-28.58923 6.70156,-4.48124 13.96329,-8.0143 16.47232,-8.0143 1.86192,0 1.85363,-1.01867 -0.0243,-2.97874 -2.50118,-2.61067 -1.80973,-3.16109 2.23831,-1.78179 l 3.27066,1.11443 2.39806,-2.10552 c 3.02163,-2.65302 3.35114,-2.63535 2.7941,0.14988 -0.42249,2.11245 -0.34213,2.2256 1.26786,1.78533 3.85614,-1.05452 7.07608,-1.34439 7.07608,-0.63702 0,0.40104 -0.50252,0.92199 -1.1167,1.15768 -2.05845,0.78989 -0.32613,1.76694 5.2378,2.9542 3.03697,0.64804 6.08425,1.33308 6.77175,1.52232 0.6875,0.18924 1.25,0.0182 1.25,-0.37998 0,-0.39823 -1.90289,-1.41788 -4.22865,-2.26589 -4.19178,-1.5284 -4.22522,-1.56299 -3.83511,-3.96694 0.32681,-2.01388 0.16573,-2.44418 -0.94992,-2.53763 -1.96359,-0.16447 -2.86019,-0.0969 -5.6426,0.42506 -2.47259,0.46386 -2.49904,0.44233 -2.31529,-1.88551 0.27579,-3.49407 -2.18877,-3.57286 -6.30308,-0.2015 -3.17683,2.60318 -3.2215,2.61503 -6.70599,1.77912 -4.9883,-1.19667 -6.32046,-0.59019 -6.58717,2.99892 -0.20159,2.71278 -0.43176,3.0063 -3.07504,3.92154 -4.1002,1.41971 -5.72347,0.71984 -8.68868,-3.74609 -2.77831,-4.18443 -4.02763,-4.61564 -4.39448,-1.51679 -0.35819,3.02566 -1.95877,2.2324 -3.71424,-1.8408 -1.24743,-2.89437 -1.69803,-5.59182 -1.97493,-11.82235 l -0.35874,-8.07235 -2.03416,1.94885 c -1.11879,1.07187 -2.23122,1.75179 -2.47207,1.51094 -0.24085,-0.24085 -0.21565,-2.05392 0.056,-4.02904 0.61089,-4.44171 4.32099,-12.13346 8.10424,-16.80164 2.76412,-3.41066 2.81444,-3.56858 1.68589,-5.29096 -0.87349,-1.3331 -1.23116,-4.01601 -1.43584,-10.77012 l -0.27254,-8.99475 2.12762,-1.23931 c 2.50345,-1.45823 4.43703,-5.14905 4.45908,-8.5115 0.009,-1.31563 0.68292,-3.83848 1.49843,-5.60634 0.8155,-1.76785 1.92006,-6.42857 2.45457,-10.35714 0.54713,-4.02127 1.60915,-8.37945 2.43015,-9.97246 1.60296,-3.11029 1.80481,-5.09458 0.7898,-7.76427 -0.73777,-1.94048 -0.11446,-3.08294 2.70255,-4.95345 l 1.67689,-1.11347 -1.49832,-0.80188 c -2.67676,-1.43255 -1.70484,-2.32486 2.25167,-2.06723 l 3.75,0.24419 0.21751,-3.79654 c 0.23046,-4.02245 1.72326,-4.9432 2.15136,-1.32695 0.12431,1.05006 0.38707,1.9092 0.58389,1.9092 0.19683,0 2.13352,-1.44643 4.30375,-3.21428 2.17023,-1.76786 4.23784,-3.21429 4.59468,-3.21429 0.90596,0 0.80885,0.98282 -0.19643,1.9881 -1.5033,1.5033 -0.12402,1.69877 5.83679,0.82719 7.02761,-1.02757 12.10126,-0.53564 19.41854,1.8828 10.20892,3.37416 22.2249,13.79277 33.90496,29.39776 3.30338,4.41342 6.66269,8.63608 7.46514,9.38367 0.80244,0.74759 3.44625,1.91558 5.87511,2.59553 6.39251,1.78956 13.713,5.68693 17.7175,9.43267 3.63164,3.39698 4.21996,4.49228 2.41291,4.49228 -1.37768,0 -1.35473,0.42432 0.35715,6.60183 1.78163,6.42921 1.92146,17.36125 0.30202,23.61089 -2.33272,9.00225 -7.4379,18.04083 -14.49552,25.6639 -4.57171,4.93799 -6.84497,6.26624 -10.72453,6.26624 -4.04326,0 -6.2557,-1.03025 -6.79079,-3.16219 -0.58328,-2.32396 -3.51352,-2.48223 -7.5769,-0.40924 -3.51796,1.79473 -3.57143,1.79015 -3.57143,-0.30612 0,-1.71057 -1.64227,-3.97959 -2.88033,-3.97959 -1.26551,0 -3.54079,3.16248 -3.98717,5.5419 l -0.4567,2.43446 -4.06217,-0.47146 c -5.06998,-0.58844 -6.53073,0.55933 -5.19972,4.0856 0.45471,1.20465 0.65623,2.46615 0.44783,2.80335 -0.20839,0.3372 -2.23137,1.87107 -4.49551,3.40861 -12.29127,8.34684 -20.27968,22.98791 -23.60704,43.26674 -1.15111,7.01554 -1.20869,7.14722 -3.28684,7.5168 -2.40092,0.42697 -2.67137,2.14223 -0.98138,6.22392 0.86704,2.0941 0.82538,2.40615 -0.44585,3.3398 -1.37103,1.00693 -1.35657,1.0777 0.64891,3.17699 1.87032,1.95781 1.98054,2.34976 1.25,4.44536 -0.44064,1.26403 -0.80117,2.93422 -0.80117,3.71152 0,1.24101 0.33714,1.35936 2.76594,0.97098 l 2.76593,-0.44229 0.46125,3.47699 c 1.0753,8.10603 9.8517,19.73589 19.48463,25.81964 4.68057,2.95604 14.18271,7.11966 16.24839,7.11966 1.66173,0 1.47893,0.42737 -2.44929,5.72624 -6.11531,8.24909 -10.01695,18.76653 -9.93223,26.77376 0.033,3.11814 0.1373,3.36489 0.82187,1.94414 0.43124,-0.89501 1.1327,-1.51872 1.5588,-1.38603 1.4127,0.43992 3.27248,5.10999 3.2736,8.22035 0.001,4.17522 -1.78342,7.32189 -8.10782,14.29327 -2.95826,3.26088 -7.21983,8.72516 -9.47016,12.14285 -4.86533,7.38923 -10.87343,13.87855 -15.19462,16.41165 -3.76903,2.20941 -12.2227,2.88366 -16.86915,1.34545 z m 61.70663,-216.58617 c 1.40711,-1.18401 2.32984,-2.75797 2.61717,-4.46428 0.73204,-4.3472 1.01439,-4.97767 3.63283,-8.11174 5.7532,-6.88613 8.05182,-14.96371 6.71325,-23.59101 -0.88479,-5.70262 -1.76485,-7.67216 -5.34058,-11.95204 -1.39897,-1.67445 -2.54358,-3.28725 -2.54358,-3.584 0,-0.29674 0.98796,-1.90337 2.19546,-3.57028 2.53992,-3.50625 2.41617,-4.27884 -0.33832,-2.11216 -1.06281,0.836 -1.99581,1.403 -2.07333,1.26 -0.0775,-0.143 -0.78381,-1.52131 -1.56953,-3.0629 -2.75132,-5.39817 -9.398,-8.51094 -11.93621,-5.58996 -1.62656,1.87184 -2.19025,4.9914 -1.02571,5.67649 0.53618,0.31543 1.18977,1.74855 1.45242,3.18472 0.41289,2.25773 0.22709,2.80821 -1.37254,4.06648 -1.01754,0.8004 -2.97514,1.82657 -4.35023,2.28039 -2.11426,0.69777 -2.70579,0.63903 -3.83245,-0.38058 -1.26522,-1.14501 -1.38843,-1.09715 -2.44738,0.95063 -0.6133,1.18599 -1.84182,2.37918 -2.73006,2.65153 -2.88729,0.8853 -3.33448,1.59558 -2.46119,3.90918 0.6161,1.63223 0.58452,2.30843 -0.1405,3.00833 -0.75878,0.7325 -1.1582,0.56886 -2.11711,-0.86738 -0.65004,-0.97361 -1.74439,-2.33969 -2.43189,-3.03571 -0.6875,-0.69603 -1.25,-1.57953 -1.25,-1.96333 0,-0.3838 -0.80123,-1.2228 -1.78051,-1.86445 -2.15989,-1.41521 -5.0021,-0.87409 -6.09046,1.15954 -0.98149,1.83392 -1.21791,6.70694 -0.49172,10.13513 l 0.56367,2.66097 -3.24335,0.81668 c -1.78384,0.44918 -3.24335,1.09996 -3.24335,1.44617 0,0.34622 2.33036,0.63 5.17857,0.6306 5.90009,0.001 9.6341,1.449 11.05097,4.28461 1.1867,2.37499 1.09773,8.24264 -0.17871,11.78571 -1.42166,3.94618 -1.31185,4.42281 0.60424,2.62274 l 1.65507,-1.55486 2.80922,2.39971 c 1.54506,1.31984 4.09493,3.05934 5.66636,3.86557 1.57143,0.80623 4.88735,3.10216 7.36873,5.10207 5.32972,4.29558 8.02035,4.71917 11.48075,1.80743 z m -47.40369,-60.16964 c -0.62351,-1.62483 -2.63631,-0.63501 -4.04107,1.98727 -1.31274,2.45048 -1.80176,7.16172 -0.84291,8.12057 0.68829,0.68829 5.33585,-8.93027 4.88398,-10.10784 z m 43.40898,-17.58416 c -1.87212,-2.51701 -4.71183,-3.98886 -7.69593,-3.98886 -2.06671,0 -2.57191,0.25286 -2.38979,1.19612 0.15164,0.78538 1.45736,1.47337 3.80238,2.00351 1.96428,0.44406 4.21428,1.18174 5,1.6393 2.24485,1.30728 2.67569,1.0219 1.28334,-0.85007 z"
       id="path4149"
       inkscape:connector-curvature="0"
       inkscape:export-xdpi="176.09828"
       inkscape:export-ydpi="176.09828" />
    <path
       style="opacity:0.98000004;fill:#ff8a1b;fill-opacity:1;stroke:none;stroke-width:3.84699988;stroke-miterlimit:4;stroke-dasharray:none;stroke-opacity:1"
       d="m 131.24556,354.11141 c -1.96979,-0.99038 -4.2796,-5.21123 -4.88661,-8.92959 -0.61392,-3.76071 0.64451,-10.76879 2.99196,-16.66199 1.00957,-2.5345 2.2527,-7.01013 2.76249,-9.94583 1.21332,-6.98701 3.04798,-9.0174 8.14813,-9.0174 3.01734,0 3.87325,0.33179 5.78335,2.24189 2.94082,2.94081 3.13505,7.63027 0.41304,9.97217 -1.59956,1.3762 -1.76586,2.11211 -2.01828,8.93112 -0.23091,6.23786 -0.54249,7.86401 -1.94007,10.12534 -1.04811,1.69588 -1.81009,4.2943 -2.05664,7.01334 -0.30586,3.373 -0.7292,4.5405 -1.93226,5.32878 -2.15554,1.41236 -5.474,1.84271 -7.26511,0.94217 z"
       id="path4151"
       inkscape:connector-curvature="0"
       inkscape:export-xdpi="176.09828"
       inkscape:export-ydpi="176.09828" />
    <path
       style="opacity:0.98000004;fill:#ff8a1b;fill-opacity:1;stroke:none;stroke-width:3.84699988;stroke-miterlimit:4;stroke-dasharray:none;stroke-opacity:1"
       d="m 213.69611,307.48798 c -4.03664,-3.71682 -12.95939,-8.47364 -18.685,-9.96119 -2.29707,-0.59679 -4.3446,-1.25319 -4.55007,-1.45866 -0.20546,-0.20546 -0.15968,-1.22579 0.10174,-2.26739 0.3612,-1.43911 0.81156,-1.80589 1.87573,-1.5276 0.77022,0.20141 3.086,-0.0825 5.14618,-0.63097 8.17627,-2.17666 12.75682,-0.70384 17.39158,5.59203 3.81312,5.17976 5.14469,9.06102 3.9832,11.61022 -0.44697,0.98098 -1.06063,1.77084 -1.36369,1.75525 -0.30307,-0.0156 -2.05792,-1.41586 -3.89967,-3.11169 z"
       id="path4153"
       inkscape:connector-curvature="0"
       inkscape:export-xdpi="176.09828"
       inkscape:export-ydpi="176.09828" />
    <path
       style="opacity:0.98000004;fill:#ff8a1b;fill-opacity:1;stroke:none;stroke-width:3.84699988;stroke-miterlimit:4;stroke-dasharray:none;stroke-opacity:1"
       d="m 271.22481,433.07726 c -6.55278,-5.48373 -13.34878,-9.43532 -20.29274,-11.79938 -2.72731,-0.92851 -4.95875,-1.91539 -4.95875,-2.19306 0,-0.27768 1.97076,-2.05298 4.37947,-3.94512 13.06906,-10.26627 20.60023,-26.18881 19.69908,-41.64813 -0.21776,-3.73567 -0.88033,-8.13409 -1.47238,-9.77429 -1.02092,-2.82833 -1.00222,-3.03146 0.36254,-3.93762 1.36145,-0.90397 1.4049,-1.35774 0.80625,-8.42075 -0.3527,-4.16137 -0.36518,-9.46226 -0.0282,-11.97748 0.53337,-3.98095 0.43249,-4.7538 -0.85683,-6.56448 -2.00395,-2.81429 -1.83361,-4.78372 0.62654,-7.24387 2.50711,-2.50711 5.06751,-2.68486 8.05292,-0.55906 l 2.14707,1.52885 5.82033,-1.35028 c 3.93318,-0.91247 8.48371,-1.34782 14.03463,-1.34269 7.48237,0.007 8.59615,0.18527 12.5,2.00162 7.4854,3.48275 12.2521,9.50537 14.00975,17.70105 0.56996,2.65762 0.57169,4.14209 0.006,5.38303 -0.64478,1.41516 -0.53383,1.96034 0.63735,3.13152 1.94605,1.94604 1.77865,4.14118 -0.60205,7.89516 -6.45443,10.17733 -18.75821,14.67944 -32.26577,11.80638 -6.52948,-1.38882 -6.81546,-1.39604 -5.77784,-0.14579 0.45411,0.54717 3.62739,1.8842 7.05175,2.97119 3.42435,1.08698 6.62788,2.46859 7.11895,3.07024 2.31629,2.83787 0.32857,17.0429 -3.63812,25.99944 -1.00044,2.25893 -1.65999,4.10714 -1.46567,4.10714 0.19431,0 1.30163,-0.4904 2.46069,-1.08977 1.15906,-0.59937 2.10671,-0.84044 2.10588,-0.53571 -8.3e-4,0.30473 -1.92872,3.44691 -4.28421,6.98263 -2.35549,3.53571 -4.28338,6.66964 -4.28421,6.96428 -8.6e-4,0.29464 0.80207,0.53572 1.78421,0.53572 0.98214,0 1.78571,0.36732 1.78571,0.81628 0,1.98393 -16.94964,16.32657 -19.29418,16.32657 -0.30799,0 -3.08386,-2.11213 -6.16861,-4.69362 z"
       id="path4155"
       inkscape:connector-curvature="0"
       inkscape:export-xdpi="176.09828"
       inkscape:export-ydpi="176.09828" />
    <path
       style="opacity:0.98000004;fill:#ff8a1b;fill-opacity:1;stroke:none;stroke-width:3.84699988;stroke-miterlimit:4;stroke-dasharray:none;stroke-opacity:1"
       d="m 263.40318,601.03584 c -4.83146,-1.09603 -9.25387,-3.16976 -17.787,-8.34053 -4.0969,-2.48257 -7.73603,-3.99172 -12.85715,-5.33185 -11.66292,-3.05203 -15.36146,-5.93988 -16.38979,-12.79728 -0.64267,-4.28563 -0.35082,-5.02926 5.39602,-13.74878 3.49949,-5.30969 5.429,-9.13491 6.70224,-13.28711 1.71548,-5.59439 1.90814,-5.88118 4.75137,-7.07241 l 2.9634,-1.24157 1.69733,1.83145 c 2.1145,2.28158 3.09657,2.00273 4.75969,-1.35149 l 1.30883,-2.63967 5.47688,-0.0109 c 6.25179,-0.0125 7.63118,-0.55967 6.9356,-2.75125 -0.38293,-1.20649 -0.0737,-1.67651 1.53071,-2.32643 10.54801,-4.27288 17.29918,-9.25364 23.04074,-16.99856 2.06136,-2.78063 3.96954,-5.05568 4.2404,-5.05568 1.08188,0 4.49978,10.5291 4.87647,15.02236 0.60682,7.23815 -0.19462,11.12005 -2.76843,13.40915 -1.19082,1.0591 -3.44314,4.07506 -5.00515,6.70214 -1.56201,2.62708 -4.74618,7.04672 -7.07592,9.82143 -4.55895,5.42967 -4.32847,6.29394 0.7739,2.90206 1.76786,-1.1752 3.61521,-2.13811 4.10524,-2.1398 2.42282,-0.008 10.87501,4.88885 14.23777,8.24931 3.06408,3.062 3.97017,4.58662 5.27096,8.86919 1.90688,6.278 1.63079,12.22949 -0.74572,16.07476 -1.61664,2.61578 -2.86825,3.2654 -2.86825,1.4887 0,-2.17773 -1.33209,-1.5857 -6.46914,2.87513 -2.92412,2.5392 -6.92372,5.40246 -8.888,6.36281 -4.5413,2.22025 -11.37336,2.8096 -17.213,1.48486 z"
       id="path4157"
       inkscape:connector-curvature="0"
       inkscape:export-xdpi="176.09828"
       inkscape:export-ydpi="176.09828" />
    <path
       style="opacity:0.98000004;fill:#ffd99a;fill-opacity:1;stroke:none;stroke-width:3.84699988;stroke-miterlimit:4;stroke-dasharray:none;stroke-opacity:1"
       d="m 203.23232,396.81617 c -1.96428,-0.92201 -4.61607,-2.55939 -5.89286,-3.63862 -2.1821,-1.84446 -2.32331,-2.24779 -2.35278,-6.72016 -0.0172,-2.61687 -0.49454,-6.04365 -1.06067,-7.61508 -1.48575,-4.12407 -1.38701,-4.5789 2.2171,-10.21215 1.79736,-2.80929 3.05856,-5.44658 2.80265,-5.86064 -0.59739,-0.9666 2.56082,-3.6325 3.78997,-3.19916 0.51258,0.18071 2.90719,-0.50279 5.32133,-1.51889 5.86399,-2.46812 13.84517,-2.30065 17.58836,0.36904 6.08801,4.34206 8.10232,16.70969 4.13231,25.3719 -4.1101,8.96787 -10.42946,13.80256 -18.82647,14.40338 -3.28735,0.23522 -4.88819,-0.0509 -7.71894,-1.37962 z m 5.35714,-15.89052 c 0,-0.62203 -0.38169,-1.00373 -0.84821,-0.84822 -1.32445,0.44148 -1.54411,1.97917 -0.28274,1.97917 0.62203,0 1.13095,-0.50893 1.13095,-1.13095 z m -3.57142,-4.13873 c 0,-0.14833 -0.48215,-0.66983 -1.07143,-1.15889 -0.87751,-0.72827 -1.07143,-0.67946 -1.07143,0.26968 0,0.63739 0.48214,1.15889 1.07143,1.15889 0.58928,0 1.07143,-0.12136 1.07143,-0.26968 z m 18.11719,-3.75859 c 0.75122,-5.48073 0.53344,-9.3025 -0.58288,-10.22897 -1.55022,-1.28657 -3.47748,-0.61308 -4.53005,1.58305 -0.56004,1.16848 -1.70837,2.11328 -2.86258,2.35524 -3.31676,0.69528 -4.07026,1.42989 -4.07026,3.96822 0,2.34268 0.15234,2.47406 4.64286,4.00401 6.62581,2.25746 6.87063,2.20185 7.40291,-1.68155 z"
       id="path4159"
       inkscape:connector-curvature="0"
       inkscape:export-xdpi="176.09828"
       inkscape:export-ydpi="176.09828" />
    <path
       style="opacity:0.98000004;fill:#ffd99a;fill-opacity:1;stroke:none;stroke-width:3.84699988;stroke-miterlimit:4;stroke-dasharray:none;stroke-opacity:1"
       d="m 215.51376,405.70032 c -1.2542,-0.34992 -3.18737,-1.79537 -5.50926,-4.11934 -0.80844,-0.80917 -1.06372,-1.23316 -0.8296,-1.37786 0.17356,-0.10727 1.35802,-0.19843 1.75027,-0.13471 1.3192,0.2143 1.89039,0.46957 2.38387,1.06541 0.53368,0.64437 0.92552,0.80814 1.93686,0.8095 0.74925,10e-4 0.91375,-0.0291 1.40996,-0.25825 0.73329,-0.33861 1.34465,-0.99824 1.61669,-1.74433 0.2388,-0.65495 0.8211,-1.40132 1.309,-1.67785 0.69922,-0.39631 1.55051,-0.19277 1.85212,0.44282 0.66396,1.39919 -0.3027,4.02626 -2.06497,5.61194 -1.46004,1.31373 -2.61598,1.72834 -3.85494,1.38267 z"
       id="path4161"
       inkscape:connector-curvature="0"
       inkscape:export-xdpi="176.09828"
       inkscape:export-ydpi="176.09828" />
    <path
       style="opacity:0.98000004;fill:#ffffff;fill-opacity:1;stroke:none;stroke-width:3.84699988;stroke-miterlimit:4;stroke-dasharray:none;stroke-opacity:1"
       d="m 238.51642,537.44794 -1.05236,-1.58494 -2.97875,1.34323 c -2.80718,1.26586 -3.03046,1.27252 -3.87643,0.11559 -0.6611,-0.9041 -2.58654,-1.39223 -7.30601,-1.8522 -7.39308,-0.72054 -12.24788,-2.2718 -20.4271,-6.5271 -10.78916,-5.61314 -17.42417,-13.63503 -21.04617,-25.44536 -0.99398,-3.24107 -2.12052,-5.89285 -2.50342,-5.89285 -0.38291,0 -1.48846,0.5191 -2.45678,1.15358 -2.06483,1.35292 -2.09693,1.25444 -0.68915,-2.11484 1.41774,-3.39313 1.37477,-3.67122 -0.71429,-4.62306 -2.14989,-0.97955 -2.31541,-2.26805 -0.35714,-2.78015 1.80381,-0.4717 1.79476,-1.23155 -0.0502,-4.21677 -1.77153,-2.8664 -1.32257,-3.94332 1.41565,-3.39567 l 2.02433,0.40486 0.50242,-4.89255 c 1.06449,-10.3659 4.28399,-20.96798 9.09891,-29.96352 2.84676,-5.31848 13.07827,-15.65729 18.74002,-18.93653 4.91166,-2.84479 5.54727,-3.91904 2.91174,-4.92107 -3.00432,-1.14224 -1.77288,-2.52623 2.06795,-2.32414 3.33193,0.17531 3.34655,0.1659 4.71892,-3.03572 1.5515,-3.61948 2.49187,-4.04524 3.1493,-1.42585 0.52309,2.08415 3.1948,2.3952 6.13525,0.71428 2.57772,-1.47355 3.57143,-1.30196 3.57143,0.61669 0,1.49986 0.49783,1.78711 4.46429,2.57588 11.83687,2.3539 17.03601,3.87814 22.99281,6.74083 7.39283,3.5528 9.80333,5.2437 15.64345,10.97346 4.94842,4.85493 7.91547,9.70521 12.50266,20.43825 2.39814,5.61115 3.86677,8.15015 5.00625,8.65489 1.46444,0.64869 1.56851,1.03628 1.13323,4.22034 -0.42599,3.11604 -0.29794,3.64286 1.15104,4.73583 l 1.63034,1.22977 -1.51114,1.92111 c -1.19771,1.52265 -1.37058,2.29079 -0.83346,3.70353 1.03113,2.71206 0.81968,3.83228 -0.72337,3.83228 -1.05874,0 -1.57756,0.74167 -2.12359,3.03572 -2.95579,12.41827 -6.99216,20.30817 -14.27545,27.90422 -5.02769,5.2436 -10.04869,8.58529 -16.84277,11.20963 -5.42845,2.09683 -6.01287,2.56291 -5.52984,4.41005 0.37745,1.44339 0.21581,1.48767 -3.82374,1.04737 -4.75052,-0.51777 -5.60104,-0.18729 -6.65548,2.58612 -0.89885,2.36413 -1.69342,2.45815 -3.08334,0.36481 z"
       id="path4143"
       inkscape:connector-curvature="0" />
    <path
       style="opacity:0.98000004;fill:#ffffff;fill-opacity:1;stroke:none;stroke-width:3.84699988;stroke-miterlimit:4;stroke-dasharray:none;stroke-opacity:1"
       d="m 191.99205,371.46074 c -0.0477,-0.089 -0.28993,-0.87411 -0.5384,-1.74462 -0.46561,-1.63126 -0.60639,-1.99475 -0.85122,-2.19794 -0.2225,-0.18467 -0.52146,0.005 -1.00555,0.63845 -1.02404,1.33969 -1.36462,1.5982 -1.80535,1.37029 -0.60731,-0.31405 -1.79313,-2.0253 -1.65424,-2.38723 0.03,-0.0783 0.13219,-0.16261 0.227,-0.1874 0.41456,-0.10841 0.0455,-0.42465 -1.01447,-0.86932 -0.65486,-0.27472 -1.1358,-0.66419 -1.13369,-0.91808 0.002,-0.21635 0.43856,-1.01787 0.85985,-1.57798 1.33298,-1.77218 2.91616,-1.75764 4.72336,0.0434 1.18022,1.1762 1.93527,2.43817 2.42399,4.05139 0.19255,0.63564 0.23517,0.95977 0.24226,1.84273 0.008,1.04772 -0.14534,2.09822 -0.30709,2.09822 -0.0439,0 -0.1188,-0.0729 -0.16645,-0.16189 z"
       id="path4145"
       inkscape:connector-curvature="0" />
    <path
       style="opacity:0.98000004;fill:#ffffff;fill-opacity:1;stroke:none;stroke-width:3.84699988;stroke-miterlimit:4;stroke-dasharray:none;stroke-opacity:1"
       d="m 182.78669,362.7059 c 0,-0.20301 0.14377,-0.39336 0.69448,-0.91951 0.38197,-0.36493 0.97055,-0.8725 1.30796,-1.12792 0.83595,-0.63283 0.97565,-0.62881 0.4801,0.0138 -1.52349,1.97564 -2.48254,2.76126 -2.48254,2.03362 z"
       id="path4148"
       inkscape:connector-curvature="0" />
    <path
       style="opacity:0.98000004;fill:#ffffff;fill-opacity:1;stroke:none;stroke-width:3.84699988;stroke-miterlimit:4;stroke-dasharray:none;stroke-opacity:1"
       d="m 222.87377,353.44717 c -0.0479,-0.12596 -0.0874,-0.53779 -0.0877,-0.91518 -0.002,-1.95473 -0.55774,-3.1175 -1.39032,-2.90854 -0.24717,0.062 -0.88079,0.65447 -1.88151,1.75922 -0.57726,0.63726 -0.803,0.664 -1.28934,0.15275 -0.18578,-0.19529 -0.46739,-0.62665 -0.62581,-0.9586 -0.28957,-0.60674 -0.33139,-0.95166 -0.24126,-1.98991 0.0242,-0.27818 -0.007,-0.33027 -0.28538,-0.47433 -0.39509,-0.20462 -1.15598,-0.15852 -1.66434,0.10082 -0.32801,0.16734 -0.74721,0.58072 -1.11787,1.10234 l -0.14828,0.20867 -0.11174,-0.26785 c -0.15179,-0.36383 -0.21917,-2.66307 -0.0919,-3.13571 0.12455,-0.46256 0.46343,-0.80545 0.93626,-0.94736 0.58601,-0.17586 2.66585,-0.14228 3.31395,0.0535 1.36776,0.41321 2.50006,1.23945 4.0037,2.92151 0.97117,1.0864 1.43912,1.51065 2.06772,1.87465 0.74518,0.43149 1.02679,0.32653 1.02679,-0.38268 0,-0.50631 0.12368,-0.54975 0.33048,-0.11608 0.082,0.17188 0.18827,0.3125 0.23625,0.3125 0.048,0 0.26467,-0.10398 0.48154,-0.23108 0.21688,-0.1271 0.41665,-0.20876 0.44395,-0.18146 0.0273,0.0273 -0.26061,0.3794 -0.63979,0.78247 -0.37917,0.40306 -1.0325,1.1778 -1.45185,1.72164 -0.87397,1.13343 -1.43946,1.74772 -1.60888,1.74772 -0.0647,0 -0.15673,-0.10306 -0.20462,-0.22903 z"
       id="path4150"
       inkscape:connector-curvature="0" />
    <path
       style="opacity:0.98000004;fill:#ffffff;fill-opacity:1;stroke:none;stroke-width:3.84699988;stroke-miterlimit:4;stroke-dasharray:none;stroke-opacity:1"
       d="m 213.19475,343.41849 c -0.0344,-0.0556 0.0211,-0.20745 0.12327,-0.33735 0.57461,-0.7305 1.76413,-1.10931 2.5849,-0.82319 0.58959,0.20553 0.0986,0.65309 -1.05931,0.96552 -0.93117,0.25125 -1.56759,0.32653 -1.64886,0.19502 z"
       id="path4152"
       inkscape:connector-curvature="0" />
    <text
       xml:space="preserve"
       style="font-style:normal;font-weight:normal;font-size:99.87090302px;line-height:125%;font-family:sans-serif;letter-spacing:0px;word-spacing:0px;fill:#e7c90a;fill-opacity:1;stroke:none;stroke-width:1px;stroke-linecap:butt;stroke-linejoin:miter;stroke-opacity:1"
       x="79.305214"
       y="553.75934"
       id="text4163"
       sodipodi:linespacing="125%"
       transform="matrix(0.96939599,-0.24550237,0.24550237,0.96939599,0,0)"
       inkscape:export-xdpi="176.09828"
       inkscape:export-ydpi="176.09828"><tspan
         sodipodi:role="line"
         id="tspan4165"
         x="79.305214"
         y="553.75934"
         style="font-style:normal;font-variant:normal;font-weight:bold;font-stretch:normal;font-family:arial;-inkscape-font-specification:'arial Bold';fill:#e7c90a;fill-opacity:1">€</tspan></text>
  </g>
</svg>
