<svg id="Calque_1" data-name="Calque 1" xmlns="http://www.w3.org/2000/svg" viewBox="0 0 142.59 47.27"><defs><style>.cls-1{opacity:0.6;}.cls-2{fill:#fff;}</style></defs><title>immobilier-desktop</title><g class="cls-1"><path class="cls-2" d="M152.77,223.05h7.83v2.66h-1a0.51,0.51,0,0,0-.6.63v6a0.58,0.58,0,0,0,.63.55h2.26a0.64,0.64,0,0,0,.66-0.63v-2.15h3.13v5.44h-13v-2.65h0.91a0.53,0.53,0,0,0,.65-0.58v-6a0.51,0.51,0,0,0-.6-0.63h-1v-2.66h0Z" transform="translate(-152.77 -220.83)"/><path class="cls-2" d="M167.09,223.05H180v4h-3.22v-0.67a0.67,0.67,0,0,0-.83-0.69h-2.81V228h3v2.43h-3v2.5H176a0.65,0.65,0,0,0,.7-0.68v-0.68H180v4H167.09v-2.65h0.7a0.52,0.52,0,0,0,.62-0.53v-6c0-.4-0.06-0.66-0.58-0.66h-0.74v-2.67h0Z" transform="translate(-152.77 -220.83)"/><path class="cls-2" d="M186.38,223.05h13.19v4h-3.22v-0.68a0.65,0.65,0,0,0-.72-0.68h-2.92V228h2.7v2.43h-2.7v1.81c0,0.5.21,0.7,0.86,0.7h1v2.65h-8.21v-2.65h1.09a0.5,0.5,0,0,0,.53-0.53v-6a0.52,0.52,0,0,0-.58-0.65h-1v-2.66h0Z" transform="translate(-152.77 -220.83)"/><path class="cls-2" d="M207,226.35a0.51,0.51,0,0,1,.6-0.63h1v-2.66h-7.79v2.66h1a0.51,0.51,0,0,1,.6.63v6a0.51,0.51,0,0,1-.61.56h-1v2.65h7.79v-2.65h-1a0.52,0.52,0,0,1-.61-0.58C207,232.21,207,226.61,207,226.35Z" transform="translate(-152.77 -220.83)"/><path class="cls-2" d="M220.36,223.05h2.76v4.4h-2.77a3.34,3.34,0,0,0-3-1.93c-1.68,0-3,1.22-3,3.48,0,3.82,2.1,4.14,3,4.14a2,2,0,0,0,2.29-1.86H217.9V229h6s0,0.94,0,1.61c0,0.32-.31,5.19-7,5.19-4.82,0-7.35-2.77-7.35-6.72,0-2.62,2-6.19,6.95-6.19a5.88,5.88,0,0,1,3.93,1.13v-0.94h0Z" transform="translate(-152.77 -220.83)"/><path class="cls-2" d="M238.46,232.91c-0.53,0-.7-0.48-1-1.25s-3.29-8.6-3.29-8.6h-4.8s-3.25,8.86-3.4,9.24a0.89,0.89,0,0,1-.94.62h-0.69v2.65h5.86V233h-0.81c-0.35,0-.43-0.27-0.31-0.65s0.37-1.12.37-1.12H233l0.38,1.18a0.49,0.49,0,0,1-.58.59h-0.69v2.52h7.06v-2.65h-0.71ZM230,229.55l1.22-3.68h0l1.17,3.68H230Z" transform="translate(-152.77 -220.83)"/><path class="cls-2" d="M255,232.91a0.86,0.86,0,0,1-.8-0.55c-0.24-.32-1.73-2.65-1.73-2.65a3.1,3.1,0,0,0,2.18-2.95,3.49,3.49,0,0,0-2.77-3.38,18,18,0,0,0-3.09-.32h-8.51v2.66h0.84a0.51,0.51,0,0,1,.6.63v5.94a0.53,0.53,0,0,1-.62.62h-0.82v2.65h7.49v-2.65H247a0.51,0.51,0,0,1-.59-0.6v-2h1.67l3.06,5.28h4.7v-2.65H255Zm-6.87-4.79h-1.7v-2.57h1.85a1.32,1.32,0,0,1,1.5,1.31C249.8,227.7,249.18,228.12,248.15,228.12Z" transform="translate(-152.77 -220.83)"/><path class="cls-2" d="M262.81,222.87c-5.22,0-7.11,3.51-7.11,6.33,0,3.73,2.61,6.59,7.05,6.59,4,0,7.08-2.17,7.08-6.43C269.84,225.31,266.86,222.87,262.81,222.87Zm0.08,10.28c-1.15,0-2.36-.68-2.36-4.17,0-2.15.82-3.48,2.22-3.48s2.29,0.89,2.29,3.73C265.05,232.29,264,233.15,262.89,233.15Z" transform="translate(-152.77 -220.83)"/><path class="cls-2" d="M290.87,223a5.79,5.79,0,0,0-2.24-.55c-1.14,0-1.72.63-2,2.17l-0.17.89h1.92l-0.29,1.56h-1.95l-1.28,7a5.89,5.89,0,0,1-1.08,2.45,4.38,4.38,0,0,1-3.32,1.36,6.58,6.58,0,0,1-1.05-.09,5.09,5.09,0,0,1-1.66-.56l1-1.63a4.25,4.25,0,0,0,1.86.51c1,0,1.72-.84,2-2.14l1.24-6.85h-1.95l0.28-1.58,2,0,0.29-1.53c0.37-2,2-3.16,4.29-3.16a6.82,6.82,0,0,1,.83,0,8.52,8.52,0,0,1,1.67.35Z" transform="translate(-152.77 -220.83)"/><path class="cls-2" d="M294.5,227.95a0.65,0.65,0,0,0-.36-0.1,1.57,1.57,0,0,0-1,.49,4.06,4.06,0,0,0-1.09,1.4,6.48,6.48,0,0,0-.58,2L291.2,233H289l1.38-7.45,1.92,0-0.36,2.18c0.17-.25.3-0.44,0.37-0.56a8.33,8.33,0,0,1,1-1.13,1.72,1.72,0,0,1,1.3-.54,1.41,1.41,0,0,1,.79.25Z" transform="translate(-152.77 -220.83)"/><path class="cls-2" d="M277.7,229.32a2.13,2.13,0,1,1-2.13-2.15A2.14,2.14,0,0,1,277.7,229.32Z" transform="translate(-152.77 -220.83)"/></g><path class="cls-2" d="M165.18,260.31c0.14,2.14,1.69,3.52,4.41,3.52a16.9,16.9,0,0,0,5.34-.69l0.62,4.14a24.12,24.12,0,0,1-6.72.83c-6.76,0-9.13-3.48-9.13-9s2.38-9,9.1-9c7.48,0,8,4.86,7.31,10.13H165.18Zm0-3.21H171c0.24-1.65-.17-3-2.52-3A3,3,0,0,0,165.18,257.1Zm6.27-8.65h-4l1.79-4.83h4.89Z" transform="translate(-152.77 -220.83)"/><path class="cls-2" d="M179.69,254.17h-2.21v-3.34l2.21-.31,0.62-4.83h4.55v4.83h4.07v3.65h-4.07V262c0,1.31.69,2,2.28,2a8.51,8.51,0,0,0,1.48-.17l0.48,4a28,28,0,0,1-3.76.31c-4.1,0-5.65-1.72-5.65-5.24v-8.69Z" transform="translate(-152.77 -220.83)"/><path class="cls-2" d="M190.41,250.52h7v10.55c0,1.86.9,2.76,2.41,2.76a6.47,6.47,0,0,0,3-1v-8h-2v-4.27h7.17v13h1.83v4.27h-7v-2.14h-0.07a7.1,7.1,0,0,1-5.38,2.48c-3.45,0-5.17-2.31-5.17-5.83v-7.48h-1.86v-4.27Z" transform="translate(-152.77 -220.83)"/><path class="cls-2" d="M220.33,243.63h7v19.85h1.83v4.27h-7V266h-0.07a6.39,6.39,0,0,1-4.65,2.07c-4.83,0-6.24-4.1-6.24-9s1.72-9,6.55-9a5.87,5.87,0,0,1,4.34,1.93h0.07V247.9h-1.86v-4.27Zm-0.72,20.2a4.35,4.35,0,0,0,2.58-.86v-7.65a4.35,4.35,0,0,0-2.58-.86c-2.28,0-2.9,2-2.9,4.69S217.33,263.82,219.61,263.82Z" transform="translate(-152.77 -220.83)"/><path class="cls-2" d="M230,250.52h7v13h1.86v4.27H230v-4.27h1.86v-8.69H230v-4.27Zm7-6.89v5h-5.17v-5h5.17Z" transform="translate(-152.77 -220.83)"/><path class="cls-2" d="M240.8,256.07V251a38.28,38.28,0,0,1,7.34-.83c4.52,0,7,1.07,7,5.83v7.48H257v4.27h-7V266h-0.07a6,6,0,0,1-4.65,2.07c-2.79,0-5.55-1.69-5.55-5.24,0-4.27,3.9-5.62,7.41-5.62H250v-0.93c0-1.55-1.1-1.86-3.07-1.86a12.8,12.8,0,0,0-1.86.14v1.48H240.8Zm9.2,4.24H247.8c-1.59,0-2.9.24-2.9,1.93a2,2,0,0,0,2.21,1.9,5.24,5.24,0,0,0,2.9-.9v-2.93Z" transform="translate(-152.77 -220.83)"/><path class="cls-2" d="M268.79,263.48h1.55v-6.27c0-1.86-.76-2.76-2.41-2.76a6.46,6.46,0,0,0-3,1v8h1.55v4.27h-8.58v-4.27h1.86v-8.69h-1.86v-4.27h7v2.17H265a7,7,0,0,1,5.38-2.52c3.45,0,5.17,2.34,5.17,5.83v7.48h1.83v4.27h-8.55v-4.27Z" transform="translate(-152.77 -220.83)"/><path class="cls-2" d="M279,254.17h-2.21v-3.34l2.21-.31,0.62-4.83h4.55v4.83h4.07v3.65h-4.07V262c0,1.31.69,2,2.28,2a8.51,8.51,0,0,0,1.48-.17l0.48,4a28,28,0,0,1-3.76.31c-4.1,0-5.65-1.72-5.65-5.24v-8.69Z" transform="translate(-152.77 -220.83)"/></svg>